<?xml version="1.0" encoding="UTF-8"?>
<svg xmlns="http://www.w3.org/2000/svg"
     viewBox="0 0 588.000000 559.000000"
     width="588.000000" height="559.000000">

  <!-- Black layer (background) -->
  <g id="black-layer" transform="translate(0.000000,559.000000) scale(0.100000,-0.100000)"
fill="#000000" stroke="none">
<path d="M2505 5574 c-116 -17 -188 -30 -264 -51 -30 -8 -74 -15 -97 -16 -23
-1 -38 -4 -34 -7 10 -6 -129 -51 -164 -54 -13 0 -22 -4 -20 -7 2 -4 -4 -9 -14
-12 -74 -23 -299 -120 -382 -166 -60 -33 -220 -127 -245 -144 -71 -49 -184
-135 -237 -180 -35 -30 -61 -46 -69 -41 -7 4 -10 3 -6 -3 7 -12 -95 -113 -114
-113 -7 0 -10 -2 -8 -5 3 -2 -31 -43 -75 -89 -45 -47 -94 -101 -109 -121 -16
-20 -33 -32 -39 -29 -6 4 -8 3 -5 -3 8 -12 -68 -114 -78 -105 -5 4 -5 2 -2 -4
3 -6 -1 -20 -11 -31 -19 -21 -23 -28 -83 -125 -23 -38 -46 -65 -52 -61 -5 3
-7 1 -3 -5 7 -12 -31 -82 -46 -82 -6 0 -8 -6 -5 -14 3 -8 -1 -20 -9 -26 -8 -7
-14 -16 -14 -20 0 -5 -24 -59 -54 -122 -30 -62 -62 -134 -72 -159 -13 -33 -23
-45 -34 -42 l-15 5 14 -10 13 -10 -27 -81 c-17 -51 -31 -79 -38 -74 -7 4 -8 0
-4 -11 7 -17 -24 -170 -43 -211 -5 -11 -11 -42 -14 -70 -2 -27 -12 -111 -22
-185 -46 -367 -10 -741 111 -1135 18 -60 47 -143 64 -184 17 -40 28 -77 25
-82 -3 -5 -1 -9 4 -9 5 0 17 -17 27 -37 9 -21 32 -68 51 -105 19 -37 34 -72
34 -78 0 -5 7 -18 16 -27 32 -36 95 -144 89 -153 -3 -6 1 -10 10 -10 9 0 13
-5 10 -10 -3 -5 -2 -10 4 -10 5 0 34 -35 65 -78 30 -42 79 -106 108 -142 28
-36 43 -58 32 -50 l-19 15 13 -17 c8 -10 17 -16 21 -15 12 3 171 -170 163
-177 -4 -4 -2 -6 4 -4 7 2 37 -19 68 -45 44 -38 54 -52 46 -62 -9 -11 -7 -12
10 -8 23 6 63 -24 56 -42 -2 -7 2 -12 10 -12 7 0 10 5 7 11 -4 6 13 -5 38 -24
24 -20 63 -48 87 -63 27 -17 40 -32 36 -40 -4 -7 -4 -9 1 -5 11 10 134 -59
185 -104 8 -7 19 -12 23 -10 25 8 37 -23 37 -99 l0 -78 19 -11 c12 -6 92 -10
192 -10 l172 0 131 -42 c72 -23 125 -43 118 -45 -6 -3 -10 -9 -6 -14 3 -5 13
-5 25 1 11 6 24 8 30 4 6 -3 25 -7 42 -9 56 -5 162 -32 147 -37 -8 -3 16 -6
53 -7 38 0 114 -8 169 -16 243 -36 791 -14 1033 41 107 24 158 32 175 26 8 -3
12 -1 7 3 -6 7 155 68 213 80 8 2 33 11 54 20 22 9 50 14 65 10 18 -4 22 -3
12 4 -18 11 73 56 92 45 7 -4 9 -4 5 1 -4 4 25 23 65 43 40 19 94 48 120 65
26 16 50 27 53 24 3 -3 17 6 31 19 14 13 28 22 31 20 2 -3 16 6 31 20 14 13
32 22 39 19 6 -2 12 0 12 4 0 9 95 81 107 81 4 0 19 12 35 27 l28 26 15 -36
c23 -55 22 -62 -21 -165 -10 -25 -23 -41 -29 -38 -7 2 -12 -2 -11 -10 0 -8
-26 -29 -59 -47 -134 -75 -89 -151 90 -152 117 0 152 17 220 106 43 58 103
116 80 78 -5 -8 -4 -10 3 -5 7 4 12 12 12 19 0 6 12 23 26 38 17 18 28 42 31
71 l5 43 -42 48 c-23 26 -38 47 -34 47 4 0 -2 10 -13 22 -11 13 -35 48 -52 79
l-31 56 23 21 c13 12 27 19 32 15 4 -5 5 -3 2 3 -9 15 29 48 44 38 8 -5 10 -3
4 5 -8 14 33 63 46 55 5 -3 9 0 9 7 0 8 5 7 18 -2 l17 -14 -14 17 -13 18 32
37 c18 21 44 48 57 60 12 12 23 25 23 29 0 5 10 19 23 33 28 31 157 208 157
216 0 6 78 122 100 148 8 9 15 23 15 30 2 22 35 87 45 87 5 0 7 7 4 15 -4 8
-2 15 3 15 5 0 15 16 23 35 7 19 17 32 21 30 4 -3 5 5 1 17 -3 14 -2 19 6 14
8 -5 12 0 12 13 0 27 40 132 48 127 4 -2 8 8 9 22 1 15 10 45 19 67 10 22 19
47 20 55 1 8 9 40 18 70 92 327 126 706 92 1021 -10 85 -22 171 -27 191 -5 20
-11 61 -12 91 -1 30 -5 53 -9 51 -7 -5 -10 2 -33 101 -17 72 -70 235 -87 269
l-10 19 16 -6 c8 -3 18 -2 21 4 4 5 3 9 -2 8 -4 -1 -13 -1 -19 0 -16 1 -56 89
-48 104 4 7 3 8 -1 4 -11 -10 -48 81 -39 95 4 6 2 8 -4 4 -6 -3 -17 6 -25 21
-57 113 -112 211 -127 228 -26 29 -42 64 -35 75 3 6 -1 7 -9 4 -15 -6 -22 11
-17 39 0 4 -3 6 -8 5 -5 -2 -31 26 -57 62 -27 36 -67 88 -89 115 -22 28 -44
56 -50 63 -5 7 -15 19 -22 26 -7 8 -9 17 -5 21 4 5 2 5 -4 2 -14 -8 -47 26
-37 38 5 4 3 5 -3 2 -6 -4 -40 24 -75 61 -35 37 -85 85 -111 106 -26 22 -45
43 -42 48 3 5 1 7 -5 6 -11 -3 -111 73 -111 84 0 5 -5 8 -11 8 -9 0 -81 50
-99 70 -3 3 -14 10 -25 16 -11 6 -71 44 -133 83 -62 39 -117 71 -122 71 -6 0
-10 5 -10 10 0 6 -7 10 -16 10 -9 0 -12 5 -8 12 4 7 3 8 -4 4 -6 -4 -19 -2
-29 3 -31 18 -154 71 -162 71 -5 0 -14 7 -21 15 -7 8 -16 12 -21 9 -5 -3 -9 0
-9 5 0 6 -3 10 -7 9 -14 -3 -103 24 -109 33 -3 5 -14 9 -25 9 -10 0 -19 4 -19
9 0 6 -8 9 -17 9 -26 -2 -174 45 -163 52 5 3 -9 6 -31 7 -22 1 -77 11 -122 22
-45 12 -147 30 -226 41 l-145 20 -310 -1 c-205 -1 -345 -6 -411 -15z"/>
</g>

  <!-- Brown layer (foreground) -->
  <g id="brown-layer" transform="translate(0.000000,559.000000) scale(0.100000,-0.100000)"
fill="#D4703A" stroke="none">
<path d="M2665 5523 c-16 -2 -84 -10 -150 -19 -454 -57 -877 -229 -1318 -537
-112 -78 -281 -230 -270 -242 5 -4 3 -5 -3 -2 -18 10 -200 -188 -307 -335
-533 -728 -677 -1639 -391 -2470 77 -223 229 -516 362 -696 123 -167 339 -401
364 -394 5 1 7 -2 4 -6 -7 -12 28 -44 38 -35 4 5 6 3 4 -3 -4 -17 137 -133
272 -223 153 -103 142 -97 138 -70 -2 15 -18 33 -43 48 -173 105 -472 364
-601 522 -31 38 -60 66 -65 63 -5 -3 -8 -1 -7 4 2 5 -34 60 -78 123 -45 63
-89 129 -98 147 -11 20 -21 30 -29 26 -7 -4 -9 -4 -5 1 4 4 -22 64 -58 132
-36 67 -85 170 -108 228 -24 58 -47 101 -51 97 -5 -4 -5 -2 -2 4 4 7 -4 47
-18 90 -64 200 -115 478 -130 714 -11 163 29 531 76 705 177 657 505 1145
1034 1542 374 280 824 463 1295 527 281 38 449 40 740 10 396 -42 822 -182
1133 -372 34 -21 87 -54 117 -72 54 -33 170 -120 280 -208 91 -74 313 -306
394 -411 522 -684 689 -1515 467 -2324 -117 -426 -385 -888 -672 -1158 -38
-36 -49 -62 -30 -73 20 -13 274 281 382 441 46 69 179 296 179 307 0 2 17 42
39 88 48 104 88 204 96 243 4 17 11 39 16 50 21 48 70 247 64 265 -4 11 -2 20
4 20 5 0 12 19 15 43 3 23 13 92 22 152 24 165 22 489 -5 675 -52 360 -176
714 -355 1010 -31 51 -56 95 -56 97 0 2 -46 66 -102 141 -203 272 -507 548
-798 725 -349 213 -749 350 -1172 402 -116 14 -525 19 -613 8z"/>
<path d="M3046 5358 c-13 -60 -56 -346 -56 -370 0 -28 16 -38 60 -38 l28 0 19
123 19 122 23 -44 c13 -25 34 -72 46 -105 35 -94 78 -105 123 -34 12 18 41 59
66 91 l46 59 0 -29 c0 -29 -16 -148 -26 -195 l-5 -27 41 -11 c52 -14 56 -10
63 47 3 27 15 118 26 203 12 85 21 161 21 168 0 8 -16 12 -47 12 l-48 -1 -89
-120 c-99 -132 -96 -131 -133 -44 -12 28 -38 86 -57 130 l-35 80 -40 3 -40 3
-5 -23z"/>
<path d="M2263 5309 c-44 -13 -45 -16 -21 -92 11 -37 18 -73 15 -80 -5 -13
-138 -57 -170 -57 -10 0 -23 25 -38 75 -12 41 -27 75 -33 75 -12 0 -86 -20
-86 -23 1 -15 119 -409 124 -414 3 -3 25 -2 48 3 l43 10 -3 29 c-2 16 -13 55
-24 88 -11 32 -16 62 -12 66 11 10 153 51 175 51 10 0 21 -21 33 -70 10 -38
23 -76 30 -85 l11 -16 35 12 c49 16 54 24 42 56 -6 15 -22 71 -37 123 -15 52
-33 113 -40 135 -7 22 -18 59 -25 83 -14 44 -16 46 -67 31z"/>
<path d="M3735 5218 c-9 -24 -34 -90 -55 -148 -22 -58 -48 -129 -59 -157 l-21
-53 28 -13 c54 -28 282 -108 291 -103 5 3 14 19 19 35 l10 28 -31 15 c-18 8
-65 25 -106 39 -83 27 -89 35 -71 90 l13 39 25 -7 c14 -3 57 -18 96 -33 l71
-28 12 22 c24 42 16 51 -72 85 -46 17 -87 35 -89 40 -8 12 16 81 28 81 6 0 55
-16 109 -37 104 -39 116 -38 120 11 l2 28 -35 13 c-93 36 -254 95 -261 95 -4
0 -15 -19 -24 -42z"/>
<path d="M1670 5081 c-118 -25 -200 -122 -200 -236 0 -174 192 -280 346 -190
73 43 133 130 107 156 -5 5 -22 11 -38 14 l-30 6 -23 -41 c-49 -87 -155 -101
-223 -30 -59 62 -59 138 1 195 l30 29 65 4 65 4 10 36 c5 20 6 40 2 43 -12 12
-75 18 -112 10z"/>
<path d="M4216 5017 c-16 -23 -70 -105 -119 -181 l-89 -139 23 -19 c38 -28 62
-33 74 -14 55 91 127 198 129 195 2 -2 12 -76 21 -164 l17 -160 31 -27 c17
-16 34 -28 38 -28 3 0 35 44 70 98 34 53 85 131 112 172 63 96 65 105 21 126
-43 21 -47 18 -121 -97 -31 -49 -60 -89 -64 -89 -4 0 -10 39 -14 88 -6 80 -31
242 -37 247 -37 25 -53 35 -58 35 -3 -1 -18 -20 -34 -43z"/>
<path d="M2690 4839 c-403 -44 -837 -223 -1145 -472 -84 -67 -307 -297 -366
-377 -273 -366 -417 -768 -435 -1209 -5 -120 -1 -183 21 -398 13 -125 122
-504 154 -536 18 -18 43 0 31 23 -18 34 -70 181 -91 255 -163 597 -70 1201
266 1725 55 86 43 70 154 200 338 396 744 629 1278 732 l118 22 255 0 255 0
125 -22 c306 -56 587 -168 827 -329 506 -341 838 -858 924 -1440 l21 -138 -5
-225 c-7 -362 -74 -628 -238 -938 -63 -121 -67 -132 -45 -132 45 0 209 367
265 592 53 211 76 535 53 753 -58 564 -368 1116 -822 1465 -287 222 -591 357
-955 425 l-140 27 -210 3 c-115 2 -248 -1 -295 -6z"/>
<path d="M1216 4752 c-64 -5 -258 -162 -240 -194 8 -14 56 -68 208 -237 33
-36 63 -70 67 -75 7 -8 79 45 80 59 0 4 -19 27 -42 52 l-42 46 32 29 c36 33
50 34 131 11 l60 -16 29 27 c35 33 31 51 -12 60 -17 3 -48 11 -68 16 l-38 10
6 35 c9 56 -5 101 -43 137 -37 36 -67 45 -128 40z m53 -106 c42 -32 33 -75
-27 -138 -46 -48 -52 -48 -101 10 -49 57 -50 63 -8 98 59 50 99 59 136 30z"/>
<path d="M2677 4749 c-42 -5 -94 -13 -115 -17 l-37 -8 1 -30 c0 -16 4 -56 8
-89 l8 -61 -68 -17 c-106 -26 -118 -26 -122 0 l-3 22 55 16 c31 9 56 20 56 25
0 29 -23 110 -32 110 -17 0 -163 -39 -199 -53 -19 -8 -42 -17 -51 -20 l-18 -6
29 -79 c16 -43 26 -83 23 -88 -8 -11 -143 -74 -159 -74 -14 0 -25 29 -17 42 4
6 26 19 50 30 24 10 44 23 44 28 0 25 -41 100 -55 100 -23 0 -235 -110 -235
-121 0 -6 18 -43 40 -83 l41 -74 -77 -51 c-60 -39 -80 -48 -90 -40 -23 19 -16
34 31 68 l45 32 -15 27 c-8 15 -23 38 -34 51 l-19 25 -68 -48 c-38 -26 -88
-64 -112 -85 l-43 -38 57 -68 57 -68 -67 -65 -67 -65 -20 19 -20 18 41 41 c22
22 40 45 40 50 0 13 -71 75 -86 75 -18 0 -169 -169 -169 -188 0 -10 6 -16 13
-14 8 1 11 -2 8 -6 -3 -5 17 -28 45 -52 57 -48 57 -48 -3 -126 -44 -56 -56
-62 -76 -42 -8 8 -6 18 9 40 34 47 31 74 -10 103 -21 14 -41 25 -47 25 -10 -1
-79 -93 -118 -161 l-26 -46 17 -15 c10 -8 36 -25 58 -38 22 -13 47 -29 56 -37
l16 -14 -39 -74 -39 -75 -20 10 c-23 13 -23 12 -4 57 9 20 13 44 10 53 -5 14
-72 60 -89 60 -8 0 -69 -125 -91 -188 -22 -62 -22 -62 67 -92 37 -12 69 -25
72 -28 2 -4 -8 -42 -21 -85 l-24 -78 -22 3 c-23 3 -25 12 -12 79 l7 37 -52 17
c-29 10 -56 13 -60 9 -12 -12 -60 -193 -60 -225 l0 -26 43 -7 c123 -20 125
-22 106 -133 l-11 -64 -22 3 -21 3 3 56 4 56 -48 7 c-26 3 -52 6 -59 6 -16 0
-35 -104 -35 -192 l0 -66 79 -3 c44 -2 83 -8 88 -12 4 -5 8 -43 8 -85 l0 -77
-21 -3 -21 -3 -7 50 -7 51 -59 0 -60 0 0 -51 c0 -58 19 -191 28 -201 4 -3 40
0 81 8 41 8 78 11 83 6 4 -4 14 -41 23 -81 l15 -75 -12 -8 c-26 -16 -38 -7
-51 40 l-14 47 -26 3 c-15 2 -27 -1 -27 -5 0 -5 -12 -9 -27 -8 l-28 0 2 -47
c2 -58 42 -198 58 -205 7 -2 40 5 73 16 87 30 86 30 117 -55 l28 -76 -14 -9
c-19 -12 -32 -6 -44 19 -5 12 -13 22 -17 22 -4 0 -5 7 -2 15 10 24 -22 28 -71
9 l-46 -17 6 -24 c14 -59 48 -133 59 -133 24 0 24 12 -1 72 -19 49 -22 63 -11
69 24 16 36 9 51 -30 9 -21 24 -41 35 -43 24 -7 89 19 96 38 4 10 2 12 -6 8
-8 -5 -9 -2 -5 10 4 9 3 24 -2 34 -5 9 -19 45 -31 79 -29 81 -34 84 -100 62
-30 -10 -65 -20 -76 -23 l-22 -6 -21 78 c-27 101 -27 112 3 112 l24 0 12 -51
c8 -31 16 -46 20 -39 6 9 9 9 12 0 3 -9 14 -9 51 0 26 7 47 13 47 14 0 8 -33
170 -40 196 l-10 36 -80 -10 c-44 -5 -83 -6 -86 -3 -4 3 -9 44 -11 91 l-6 86
25 0 25 0 7 -42 c4 -24 8 -49 8 -57 1 -12 87 -9 109 5 8 5 0 215 -8 224 -3 3
-41 7 -86 10 l-82 5 3 40 c1 22 5 64 8 93 l5 52 25 0 24 0 0 -59 0 -58 52 -7
c63 -9 62 -10 77 110 6 52 12 100 14 107 1 7 -29 19 -78 31 -44 10 -82 20 -84
22 -5 5 28 146 38 163 5 8 17 11 30 6 12 -3 19 -10 16 -14 -2 -5 -7 -29 -9
-54 l-5 -46 20 -6 c10 -4 29 -3 42 0 l22 6 -15 -11 c-12 -9 -9 -10 15 -8 l30
3 32 100 c18 55 31 105 29 111 -2 6 -38 24 -80 39 -42 15 -76 30 -76 32 0 17
77 173 85 173 5 0 16 -4 24 -9 l14 -9 -21 -48 c-11 -27 -18 -52 -16 -56 7 -11
80 -48 94 -48 8 0 110 189 110 205 0 3 -32 26 -70 51 l-70 45 11 22 c7 12 30
48 52 81 l39 58 21 -20 20 -21 -26 -35 c-15 -19 -27 -41 -27 -48 0 -17 89 -73
99 -62 30 34 131 175 131 182 0 6 -24 30 -52 53 -54 45 -68 59 -68 71 0 4 29
37 64 74 l65 68 15 -13 c23 -19 20 -31 -20 -72 l-36 -37 11 -20 c6 -11 25 -32
42 -46 l31 -27 87 83 c47 45 88 86 89 90 2 5 -22 38 -54 74 l-58 65 30 25 c16
13 53 40 82 60 l53 36 14 -12 c16 -13 20 -40 8 -40 -5 0 -26 -15 -47 -34 l-40
-33 38 -46 38 -46 96 66 c53 36 99 68 102 70 2 2 -13 36 -34 74 -21 39 -36 76
-33 83 3 7 42 32 88 56 l82 43 14 -19 c20 -28 17 -33 -42 -60 -30 -14 -55 -27
-55 -29 0 -16 42 -97 53 -101 8 -3 40 8 71 25 32 16 80 38 107 47 57 21 58 25
23 117 l-27 69 14 9 c8 5 52 21 98 35 l83 26 9 -13 c17 -27 4 -43 -45 -55 -63
-16 -67 -21 -53 -74 19 -70 18 -70 105 -45 43 13 99 26 125 30 26 4 47 11 47
15 0 5 -7 43 -15 86 -8 43 -11 81 -7 85 8 8 147 29 193 29 l29 0 0 -24 0 -23
-37 -7 c-21 -3 -50 -6 -65 -6 l-28 0 0 -49 c0 -27 3 -57 6 -66 l6 -16 87 6
c47 3 110 8 139 11 l52 5 0 84 c0 46 3 86 8 88 4 3 54 2 112 -2 l105 -6 3 -29
4 -28 -70 7 -69 7 -7 -58 c-4 -32 -3 -60 1 -64 12 -11 231 -32 244 -24 8 5 9
3 4 -6 -5 -8 -3 -11 6 -8 7 2 19 33 26 69 8 35 16 74 18 86 l5 21 62 -14 c35
-8 80 -19 101 -25 l38 -10 -7 -22 c-9 -30 -6 -30 -68 -14 l-56 15 -10 -18 c-5
-9 -11 -36 -12 -60 l-3 -42 104 -34 c58 -19 111 -34 118 -34 13 0 63 100 63
125 0 33 26 32 109 -4 91 -39 99 -47 78 -75 l-13 -18 -53 27 c-29 14 -55 25
-56 23 -12 -11 -44 -101 -40 -109 3 -5 53 -33 111 -62 l105 -54 33 51 c18 28
38 62 45 75 15 27 22 25 112 -35 75 -51 75 -50 55 -77 l-14 -18 -43 30 c-23
17 -48 31 -55 31 -10 0 -64 -78 -64 -94 0 -3 44 -38 97 -78 l96 -72 61 66 61
67 50 -48 c28 -27 58 -58 69 -69 l19 -22 -13 -15 c-17 -21 -21 -20 -66 20 -21
19 -41 35 -44 35 -3 0 -23 -18 -45 -40 l-39 -40 80 -82 c43 -46 85 -85 92 -86
8 -2 35 14 60 35 26 21 55 44 64 51 l17 13 57 -75 56 -76 -12 -15 c-20 -24
-35 -18 -64 25 -32 48 -40 49 -91 6 l-39 -33 64 -97 c36 -53 69 -96 74 -96 5
0 38 16 73 36 35 19 69 34 74 32 16 -5 79 -130 79 -156 0 -39 -41 -25 -63 21
-10 21 -24 40 -31 43 -19 7 -96 -33 -96 -50 0 -29 90 -206 104 -206 9 0 45 11
82 25 36 14 68 25 69 25 9 0 56 -163 51 -175 -11 -30 -42 -17 -54 23 -20 63
-22 64 -80 47 -54 -16 -60 -26 -42 -67 5 -13 17 -58 26 -102 l17 -78 61 7 c33
3 73 9 87 12 l26 5 11 -70 c7 -39 12 -82 12 -96 l0 -26 -25 0 c-26 0 -31 12
-37 75 l-3 30 -53 -1 c-29 -1 -55 -4 -58 -7 -3 -2 -1 -56 3 -118 l8 -114 88
-3 87 -3 0 -82 c0 -90 -8 -111 -36 -105 l-19 3 -3 58 -3 58 -57 -3 -57 -3 -8
-109 c-4 -60 -4 -113 1 -118 4 -4 39 -11 77 -15 l70 -8 -1 -50 c-2 -79 -21
-135 -45 -135 l-21 0 4 63 3 62 -56 3 -57 3 -12 -50 c-6 -28 -8 -55 -4 -62 4
-7 3 -9 -3 -6 -5 4 -15 -16 -22 -45 -14 -61 -15 -59 82 -89 l69 -20 -7 -22
c-4 -12 -8 -32 -9 -44 0 -11 -4 -20 -7 -18 -3 2 -13 -18 -23 -46 -18 -48 -29
-57 -54 -40 l-13 8 15 38 c23 54 13 80 -36 94 l-41 13 -8 -14 c-13 -20 -5 -33
18 -30 34 5 45 -20 28 -61 -19 -46 -12 -63 38 -87 38 -19 63 -18 52 1 -4 5 -2
9 3 9 10 0 66 136 77 187 7 37 -1 43 -80 62 -72 18 -75 22 -59 84 7 28 16 64
19 80 4 18 12 27 25 27 27 0 32 -13 21 -62 -12 -51 -5 -61 57 -76 l43 -10 10
26 c17 42 39 153 39 193 0 43 -8 48 -97 56 l-63 6 0 51 c0 28 3 67 6 87 l6 36
24 -5 24 -4 0 -53 0 -53 56 -4 c70 -4 69 -6 69 142 l0 115 -82 0 c-45 0 -85 3
-89 8 -8 8 -10 22 -15 107 l-3 55 26 3 26 3 9 -53 c6 -41 12 -53 26 -52 9 0
35 1 57 2 l40 2 0 33 c0 19 -4 58 -10 88 -5 30 -12 71 -15 92 -8 48 -21 53
-106 37 -38 -7 -72 -11 -75 -8 -10 10 -43 151 -38 160 15 23 43 6 57 -34 l14
-43 49 2 c27 1 50 6 52 12 2 6 9 8 15 4 7 -4 8 0 3 13 -4 10 -16 52 -27 93
-24 88 -45 141 -57 141 -5 0 -42 -11 -82 -25 -41 -14 -77 -22 -81 -18 -4 5
-20 41 -37 81 l-30 72 19 10 19 11 20 -33 c11 -18 20 -36 20 -40 0 -4 9 -10
21 -13 26 -8 99 22 99 41 0 21 -102 215 -116 221 -7 2 -40 -11 -74 -31 -34
-20 -66 -36 -73 -36 -22 1 -108 132 -95 147 18 22 35 15 65 -27 15 -22 32 -40
36 -40 13 0 97 60 97 69 0 11 -113 162 -141 188 l-24 22 -63 -55 c-72 -61 -66
-62 -141 19 l-54 57 18 20 19 21 43 -43 43 -42 32 30 c37 33 48 46 48 57 0 10
-173 177 -185 177 -5 0 -36 -28 -67 -62 -44 -49 -60 -61 -71 -53 -8 6 -42 29
-75 53 l-61 42 11 25 c14 31 16 31 64 -5 21 -16 44 -30 49 -30 14 0 65 66 65
84 0 18 -103 97 -173 132 l-47 24 -47 -74 -47 -74 -78 39 c-76 38 -87 50 -69
77 l8 14 46 -21 c62 -28 63 -28 92 29 l25 49 -22 15 c-42 27 -218 98 -230 93
-7 -2 -26 -39 -41 -81 l-29 -77 -20 7 c-11 3 -49 14 -85 25 -77 22 -77 21 -68
49 l7 22 36 -8 c21 -4 48 -8 62 -8 l24 -1 14 49 14 50 -15 11 c-19 13 -247 68
-254 61 -3 -3 -13 -43 -22 -88 l-17 -83 -29 4 c-17 2 -61 6 -100 10 l-70 6 -3
28 -3 28 67 -2 68 -2 7 19 c4 10 8 36 8 56 l1 38 -22 5 c-13 3 -81 7 -153 8
l-130 2 -3 -86 -3 -87 -101 -7 c-80 -6 -102 -5 -109 6 -20 32 -5 44 61 49 l65
5 0 60 0 60 -35 1 c-19 1 -70 -2 -113 -7z"/>
<path d="M4678 4722 l-28 -27 52 -52 52 -52 -122 -120 c-67 -66 -122 -127
-122 -135 0 -8 14 -26 32 -41 l31 -26 126 125 126 126 47 -47 47 -47 26 24
c14 13 25 28 25 34 0 10 -178 190 -240 243 l-25 21 -27 -26z"/>
<path d="M2790 4488 c-714 -45 -1374 -543 -1596 -1202 -78 -230 -98 -353 -99
-586 0 -288 52 -529 170 -782 28 -60 36 -72 30 -39 -3 14 1 18 12 14 12 -5 10
3 -6 36 -112 218 -177 540 -168 821 5 156 12 204 48 360 117 505 497 959 996
1186 82 38 272 104 298 104 8 0 15 5 15 11 0 6 6 9 13 6 7 -3 49 1 92 9 909
160 1771 -342 2058 -1197 83 -247 102 -587 50 -869 -8 -47 -17 -97 -20 -111
-3 -14 1 -30 9 -37 l14 -11 23 97 c36 157 41 207 41 398 0 193 -11 286 -56
454 -131 500 -496 938 -964 1159 -316 148 -604 202 -960 179z"/>
<path d="M801 4329 c-49 -19 -110 -80 -137 -134 l-26 -55 4 -60 c5 -73 42
-130 113 -175 l48 -30 61 1 c130 2 246 115 246 238 0 83 -71 188 -146 216 -32
13 -131 12 -163 -1z m125 -95 c52 -20 84 -72 84 -137 l0 -46 -33 -34 c-89 -95
-238 -36 -239 94 0 60 19 92 72 120 42 23 62 24 116 3z"/>
<path d="M4950 4301 c-112 -36 -167 -118 -158 -234 23 -284 435 -299 456 -17
l4 66 -22 45 c-28 56 -65 96 -112 120 -42 21 -131 32 -168 20z m140 -106 c49
-25 64 -52 65 -115 l0 -60 -36 -36 c-59 -59 -141 -60 -198 -3 -55 54 -54 129
1 186 50 51 103 60 168 28z"/>
<path d="M3147 4225 c-28 -28 -60 -86 -51 -94 46 -41 283 -201 298 -201 13 0
66 84 66 103 -1 14 -4 16 -165 126 -129 89 -127 87 -148 66z"/>
<path d="M3132 3933 c-58 -86 -61 -98 -32 -106 16 -4 29 8 64 56 60 86 68 101
54 115 -22 22 -33 13 -86 -65z"/>
<path d="M3781 3990 c-83 -30 -158 -93 -187 -159 l-15 -34 14 -15 15 -14 70
21 c82 25 105 26 121 7 6 -8 24 -19 40 -26 31 -12 45 -47 57 -136 l6 -50 -21
-39 c-12 -22 -21 -45 -21 -52 0 -16 -5 -16 -58 2 -49 17 -94 11 -85 -11 4 -11
14 -13 33 -9 19 4 33 1 44 -10 19 -20 14 -30 -24 -50 -21 -11 -28 -20 -23 -33
26 -76 129 -28 188 88 30 59 31 93 6 151 -33 74 -35 111 -11 142 43 54 98 22
108 -63 l7 -54 29 -7 c16 -5 34 -5 39 -2 14 9 1 204 -16 244 -47 109 -184 156
-316 109z"/>
<path d="M481 3898 c-5 -13 -30 -72 -56 -133 -26 -60 -49 -119 -52 -130 -3
-11 -10 -25 -15 -32 -13 -16 51 -57 67 -43 6 5 19 32 29 59 12 34 24 51 35 51
10 0 80 -27 157 -60 76 -33 146 -60 155 -60 16 0 53 66 44 80 -3 4 -38 21 -78
36 -39 15 -99 40 -133 55 -33 15 -72 33 -87 38 -32 13 -33 20 -7 71 25 49 25
67 1 80 -31 16 -51 12 -60 -12z"/>
<path d="M5207 3752 c-150 -58 -197 -80 -197 -93 0 -58 40 -77 109 -50 l49 18
12 -43 13 -44 -29 -36 c-16 -20 -36 -47 -45 -61 l-17 -25 11 -34 c6 -19 17
-34 24 -34 8 0 11 -4 8 -10 -3 -5 -4 -10 -2 -10 2 0 25 32 51 70 l46 70 22
-20 c87 -81 238 -6 238 118 0 40 -71 245 -88 256 -4 2 -96 -30 -205 -72z m182
-69 c22 -49 26 -127 6 -146 -17 -17 -71 -23 -92 -9 -11 7 -67 122 -61 127 8 7
116 53 129 54 3 1 11 -11 18 -26z"/>
<path d="M3010 3795 c0 -8 4 -15 8 -15 4 0 23 -13 41 -28 l34 -28 -18 -33
c-11 -22 -15 -45 -11 -63 l6 -30 -24 6 c-18 4 -28 0 -40 -19 -22 -33 -21 -37
18 -62 l33 -21 43 -109 c71 -180 193 -390 235 -407 50 -19 253 8 365 48 l65
24 6 68 c6 62 20 129 36 170 8 23 -73 18 -107 -6 -16 -11 -68 -32 -117 -46
-48 -14 -102 -34 -119 -45 -42 -26 -46 -25 -69 18 -11 21 -47 67 -81 103 -68
73 -109 130 -147 206 l-26 50 2 70 c2 85 -18 127 -69 149 -46 19 -64 19 -64 0z"/>
<path d="M3688 3758 l-58 -20 0 -28 c0 -15 7 -41 15 -56 8 -16 15 -53 15 -81
0 -58 0 -58 64 -41 34 9 51 9 71 0 l26 -12 9 28 c6 15 15 35 20 44 28 50 7
124 -47 161 -46 31 -41 31 -115 5z m87 -87 c9 -16 -33 -38 -65 -33 -35 5 -35
23 1 33 36 10 57 10 64 0z"/>
<path d="M2928 3726 c-35 -55 -35 -67 3 -95 36 -27 46 -21 83 44 l24 43 -27
26 c-37 36 -52 33 -83 -18z"/>
<path d="M3955 3744 c-18 -18 -13 -48 18 -114 31 -65 27 -115 -16 -193 l-37
-65 0 -72 c0 -48 4 -70 11 -68 6 2 39 44 73 93 39 56 85 109 124 140 l62 49
-36 37 c-23 24 -52 41 -80 48 -45 12 -82 50 -69 71 11 17 -4 77 -20 84 -8 3
-21 -2 -30 -10z"/>
<path d="M2126 3640 c-57 -18 -96 -73 -96 -138 l0 -38 -211 -103 -212 -102
-36 25 c-71 48 -142 43 -196 -14 -92 -96 -5 -253 128 -230 l37 7 46 -73 c49
-78 49 -78 2 -133 l-28 -32 -19 11 c-28 15 -97 12 -131 -5 -92 -48 -92 -194 2
-249 61 -37 160 -9 193 54 18 35 17 35 113 11 l74 -17 -77 -94 c-42 -51 -93
-112 -113 -136 l-38 -42 -62 5 -62 6 -34 -24 c-119 -81 -69 -259 74 -259 52 0
105 28 122 65 6 14 15 25 19 25 8 0 364 -78 389 -86 9 -2 22 -25 29 -50 36
-120 210 -134 262 -20 10 23 19 55 19 73 l0 31 68 38 c37 20 69 40 72 43 3 3
11 7 19 9 8 2 51 21 95 44 45 23 105 53 135 68 l54 26 24 -22 c59 -54 140 -55
197 -1 63 60 58 161 -11 214 l-36 28 -57 0 -57 0 -71 110 -70 109 27 36 c15
19 45 63 66 96 l39 62 24 -9 c13 -5 36 -9 51 -9 l29 0 22 -60 c16 -43 28 -60
41 -60 29 0 30 14 2 79 l-26 61 26 20 c51 40 59 139 15 195 -47 60 -134 71
-196 25 l-32 -23 -34 18 c-19 10 -121 71 -227 135 l-194 116 -1 46 c-3 102
-92 168 -188 138z m-72 -218 c7 -12 -16 -43 -133 -181 l-104 -122 -21 8 c-11
4 -55 14 -96 23 l-75 16 -3 30 -3 29 208 102 c224 109 219 107 227 95z m471
-135 c278 -167 283 -179 90 -195 l-120 -11 -16 17 c-9 9 -55 79 -103 154 -78
124 -99 168 -78 168 4 0 106 -60 227 -133z m-355 79 c14 0 37 4 52 8 l27 8
100 -154 100 -153 -42 -7 c-65 -10 -97 -9 -97 4 0 20 -43 76 -68 87 -13 6 -45
11 -73 11 l-50 0 -45 -46 -46 -45 -56 12 c-31 6 -67 15 -80 20 l-23 9 56 67
c31 38 79 96 107 131 l51 63 31 -8 c17 -4 42 -7 56 -7z m-457 -252 c40 -9 74
-18 76 -20 4 -4 -61 -93 -69 -94 -16 -1 -118 104 -113 116 7 18 18 18 106 -2z
m232 -53 l80 -17 3 -29 c2 -15 10 -39 19 -51 8 -13 11 -29 7 -36 -16 -26 -109
-128 -117 -128 -9 0 -179 159 -185 172 -6 12 82 108 98 107 8 0 51 -8 95 -18z
m-255 -89 c0 -3 -7 -14 -17 -24 l-16 -18 -38 62 c-51 84 -49 88 16 33 30 -26
55 -50 55 -53z m1058 71 c-3 -17 -132 -123 -149 -123 -16 0 -83 110 -73 120 9
9 63 14 172 18 l53 2 -3 -17z m-233 -73 c25 -39 45 -74 45 -79 0 -5 -20 -25
-45 -46 l-46 -37 -47 38 c-26 21 -64 54 -84 74 l-37 35 7 35 8 35 64 6 c36 3
70 6 77 7 7 1 32 -30 58 -68z m251 -7 c-8 -15 -35 -57 -60 -92 l-45 -63 -20
33 c-26 43 -27 39 17 72 20 15 55 41 76 57 45 35 53 33 32 -7z m-964 -93 c41
-38 85 -77 98 -88 l23 -18 -48 -55 c-26 -30 -49 -55 -50 -57 -1 -1 -14 19 -29
45 -14 27 -47 81 -72 120 l-45 73 17 25 c9 14 20 25 24 25 5 0 42 -31 82 -70z
m554 -12 c38 -34 70 -65 72 -69 2 -4 -16 -22 -38 -41 -23 -18 -57 -46 -76 -61
l-34 -29 -45 22 c-48 23 -89 21 -133 -7 l-23 -14 -52 48 c-29 26 -53 51 -55
54 -2 4 23 39 54 79 43 53 61 69 73 64 34 -16 119 -16 147 0 40 21 34 23 110
-46z m-637 -101 c33 -54 61 -100 61 -101 0 -2 -35 4 -77 13 l-77 17 -7 30 c-3
16 -10 38 -16 49 l-11 19 30 39 c17 21 31 37 33 35 1 -2 30 -47 64 -101z m895
56 l25 -36 -17 -29 c-28 -49 -35 -50 -82 -8 l-45 40 40 35 c49 43 49 43 79 -2z
m-54 -147 c0 -6 -20 -41 -45 -78 l-45 -67 -37 6 c-21 3 -56 9 -78 12 l-40 6
-7 44 -8 44 18 13 c9 7 46 35 81 62 l64 50 49 -40 c26 -23 48 -46 48 -52z
m-510 -38 c0 -9 -4 -19 -9 -22 -7 -5 -125 16 -169 30 -9 2 1 20 29 54 l41 49
54 -47 c30 -26 54 -55 54 -64z m653 50 c108 -169 106 -187 -9 -77 l-73 72 15
28 c20 40 28 37 67 -23z m-10 -123 c70 -61 71 -63 59 -81 -7 -11 -214 24 -228
39 -4 3 11 33 31 67 l37 61 17 -14 c9 -7 46 -40 84 -72z m-825 -39 c30 -48 37
-67 29 -74 -34 -28 -297 -150 -302 -141 -4 5 18 40 49 77 31 37 82 99 113 138
32 39 61 70 64 68 4 -2 25 -33 47 -68z m102 60 l55 -12 3 -31 3 -31 -46 -17
c-25 -10 -47 -16 -49 -14 -9 10 -66 107 -66 113 0 9 39 7 100 -8z m410 -76
c30 -6 55 -12 57 -14 3 -2 -39 -69 -93 -149 l-97 -144 -38 10 c-26 6 -48 6
-70 -2 -18 -6 -35 -7 -38 -3 -13 20 -70 111 -99 160 -41 68 -40 75 8 97 l40
18 23 -20 c70 -64 173 -54 218 22 24 40 19 38 89 25z m288 -54 c17 -1 32 -4
32 -8 0 -5 9 -8 19 -8 19 0 31 -18 31 -45 0 -18 -437 -238 -457 -231 -21 8
-16 18 93 180 l96 143 76 -15 c42 -9 92 -16 110 -16z m-681 -131 c30 -49 61
-101 69 -116 l14 -28 -18 -31 c-12 -22 -23 -30 -37 -27 -11 3 -99 21 -195 42
-96 20 -181 39 -187 41 -7 2 -13 18 -12 36 l0 33 147 72 c81 39 151 71 156 69
4 -1 33 -42 63 -91z"/>
<path d="M2878 3567 c-36 -46 -51 -77 -38 -77 5 0 9 -5 8 -12 -7 -31 30 -14
54 25 40 64 42 74 20 86 l-20 11 -24 -33z"/>
<path d="M4190 3460 c-50 -26 -114 -95 -173 -186 -77 -116 -125 -126 -137 -27
-8 70 -26 65 -51 -17 l-21 -71 4 -97 c2 -53 9 -106 15 -116 l10 -19 35 54 c19
30 67 85 106 123 47 47 72 79 76 100 25 132 137 246 241 246 36 0 47 13 19 24
-30 11 -89 5 -124 -14z"/>
<path d="M4240 3395 c-71 -32 -116 -93 -143 -195 l-14 -55 -84 -85 c-58 -58
-97 -108 -124 -160 l-40 -75 -80 -6 c-44 -3 -107 -13 -140 -22 -80 -21 -211
-37 -312 -37 l-82 0 -67 35 c-67 35 -94 43 -94 27 0 -11 -45 -32 -69 -32 -9 0
-26 -6 -36 -14 l-18 -13 23 -57 c12 -31 31 -68 42 -81 l19 -25 52 0 c29 0 81
7 116 15 l64 15 96 -11 c180 -20 368 -23 459 -6 l82 16 110 86 c113 89 220
200 279 293 21 31 42 52 53 52 30 0 21 -24 -46 -117 -70 -96 -71 -104 -15
-144 39 -27 84 -29 105 -3 75 93 111 340 70 477 -33 114 -116 162 -206 122z"/>
<path d="M4505 3083 c-16 -149 -52 -261 -98 -310 l-31 -33 -46 0 c-47 0 -95
26 -124 66 l-13 17 -84 -74 c-46 -41 -108 -92 -137 -113 l-54 -39 7 -81 c8
-92 20 -112 73 -121 41 -7 221 14 408 46 173 31 181 41 149 196 -8 39 -19 166
-24 283 -5 116 -12 214 -14 217 -3 2 -8 -22 -12 -54z"/>
<path d="M3074 2556 c-7 -18 23 -76 39 -76 6 0 18 4 25 9 l13 8 -15 37 c-16
38 -51 50 -62 22z"/>
<path d="M4325 2384 c-77 -13 -178 -26 -225 -30 l-85 -7 -39 -101 c-59 -154
-123 -333 -187 -521 l-58 -170 22 -17 c11 -9 84 -47 160 -84 l139 -68 92 -4
c70 -3 110 1 173 17 64 17 112 21 225 21 209 0 205 -2 168 120 -20 64 -54 264
-85 492 -19 145 -49 267 -81 330 l-24 48 -28 -1 c-15 -1 -90 -12 -167 -25z"/>
<path d="M1197 1863 c-13 -12 -7 -23 12 -23 26 0 35 16 15 24 -19 7 -19 7 -27
-1z"/>
<path d="M1630 1541 l0 -279 53 -18 c133 -43 213 -111 247 -207 63 -180 -27
-370 -245 -513 l-60 -39 151 -3 151 -3 72 44 c39 25 104 55 144 68 l72 24 150
0 150 -1 69 -27 c38 -15 98 -45 133 -67 l63 -40 145 0 c81 0 145 4 145 9 0 5
-23 24 -51 41 -211 129 -310 347 -250 547 72 242 354 461 706 548 l90 22 3 87
3 86 -971 0 -970 0 0 -279z m723 124 c62 -58 85 -142 62 -229 -16 -62 -14 -76
15 -76 19 0 30 19 36 64 5 38 8 40 33 26 37 -19 74 -107 75 -175 0 -146 -108
-246 -254 -232 -102 9 -171 62 -203 159 -30 86 -4 173 81 281 59 75 86 120
102 170 14 44 17 45 53 12z"/>
<path d="M4730 1812 c0 -5 9 -17 20 -27 19 -18 20 -27 3 -72 -3 -7 1 -13 9
-13 13 0 65 77 57 84 -10 9 -69 36 -79 36 -5 0 -10 -4 -10 -8z"/>
<path d="M541 1729 c61 -115 355 -291 614 -369 108 -32 373 -90 414 -90 8 0
11 71 11 240 l0 240 -75 0 -75 0 0 -82 c0 -89 -9 -115 -34 -105 l-16 6 0 91 0
90 -425 0 -426 0 12 -21z"/>
<path d="M3706 1457 c-27 -71 -35 -138 -26 -217 9 -78 25 -593 21 -690 -2 -73
-40 -149 -89 -183 -47 -32 -159 -84 -223 -103 -37 -11 -49 -19 -49 -35 0 -35
40 -40 268 -33 l216 7 24 24 24 24 -6 37 c-26 163 -16 273 44 492 36 132 43
224 28 345 -12 104 -4 154 34 208 11 16 19 29 17 31 -2 2 -51 27 -109 56 -58
29 -109 56 -115 60 -32 23 -44 18 -59 -23z"/>
<path d="M4415 1374 c-11 -3 -42 -9 -70 -15 -74 -14 -77 -17 -61 -69 25 -80
54 -134 87 -160 71 -55 98 -82 140 -137 24 -32 91 -118 149 -191 172 -218 196
-282 149 -407 -26 -71 -50 -97 -119 -134 -87 -45 -68 -68 58 -70 88 -1 119 15
182 95 29 38 70 84 91 102 62 53 60 87 -5 160 -48 53 -138 234 -181 365 -55
168 -91 226 -197 311 l-56 46 -7 38 c-10 59 -17 65 -82 68 -32 2 -67 1 -78 -2z"/>
<path d="M4048 1282 c-22 -15 -25 -21 -15 -31 9 -10 8 -11 -8 -6 -15 5 -17 4
-6 -3 16 -12 85 33 75 49 -8 13 -15 11 -46 -9z"/>
<path d="M4173 1277 c-13 -5 -23 -13 -23 -17 0 -14 60 -89 79 -100 l20 -10
-16 37 c-8 21 -20 43 -25 50 -5 7 -7 16 -5 21 12 17 -8 29 -30 19z"/>
<path d="M1330 1207 c0 -16 111 -127 128 -127 7 0 12 -4 12 -10 0 -25 329
-260 358 -256 31 5 21 22 -33 54 -84 51 -239 169 -348 265 -96 86 -117 99
-117 74z"/>
<path d="M4095 1201 c3 -5 1 -12 -5 -16 -5 -3 -10 -1 -10 5 0 8 -6 8 -20 0
-11 -6 -18 -15 -15 -21 4 -5 3 -9 -2 -8 -18 3 -33 -2 -33 -11 0 -5 7 -7 15 -4
8 4 15 1 15 -5 0 -8 7 -7 22 3 l22 16 19 -17 19 -18 -43 -36 -42 -36 28 -46
c15 -26 33 -47 41 -47 13 0 112 70 161 113 24 22 18 49 -13 61 -13 5 -14 3 -6
-7 15 -17 7 -26 -65 -76 -61 -42 -93 -48 -93 -17 0 8 17 28 38 44 l37 31 -15
28 c-9 15 -22 28 -30 28 -7 0 -15 6 -18 14 -3 9 0 11 9 5 l14 -8 -14 17 c-14
18 -26 23 -16 8z"/>
<path d="M1476 1182 c-2 -4 24 -31 59 -60 l64 -52 22 30 c37 49 31 91 -6 50
-22 -24 -38 -25 -55 -5 -7 8 -17 12 -23 8 -6 -3 -7 -1 -3 5 3 6 -2 16 -13 21
-23 13 -38 14 -45 3z"/>
<path d="M1691 1071 c-17 -21 -31 -41 -31 -44 0 -6 95 -75 151 -111 l26 -16
12 13 11 14 -64 43 c-83 54 -91 63 -74 89 17 27 21 27 63 -10 20 -18 39 -29
42 -25 3 3 1 6 -5 6 -7 0 -12 5 -12 11 0 5 6 7 13 4 6 -4 -5 9 -25 29 -48 46
-69 45 -107 -3z"/>
<path d="M4265 1006 c-40 -33 -153 -110 -232 -160 -41 -25 -57 -56 -30 -56 30
0 295 184 290 201 -2 5 3 6 10 3 7 -2 23 6 34 18 l22 23 -27 2 c-18 1 -41 -10
-67 -31z"/>
<path d="M3535 1003 c-191 -65 -351 -94 -540 -97 -120 -3 -150 -6 -150 -17 0
-51 411 -11 645 62 109 34 123 41 118 61 l-3 15 -70 -24z"/>
<path d="M3508 905 c-3 -3 -49 -16 -103 -30 -53 -13 -99 -26 -102 -29 -3 -3 1
-43 10 -88 8 -46 13 -84 12 -86 -3 -3 -179 -31 -182 -28 0 0 -3 12 -5 26 l-3
25 52 8 c28 5 54 14 56 21 6 15 -11 98 -21 107 -4 3 -56 1 -117 -5 l-110 -11
-3 -73 c-2 -46 2 -79 9 -88 23 -28 31 -13 27 59 l-3 72 85 6 c97 8 89 10 92
-21 l3 -24 -55 -11 c-35 -7 -49 -14 -40 -18 11 -5 12 -8 3 -13 -20 -9 -17 -83
3 -91 22 -8 207 12 232 26 l19 10 -9 58 c-6 32 -11 71 -11 87 l-2 30 78 19
c85 21 85 21 89 -13 l3 -24 -45 -11 c-51 -13 -56 -22 -37 -85 l13 -45 25 3
c72 8 145 34 146 53 2 23 1 23 -61 4 -72 -22 -96 -20 -96 8 l0 23 47 15 c30 9
47 21 49 32 5 36 -33 117 -48 102z"/>
<path d="M2884 806 c1 -7 9 -24 18 -37 l17 -24 0 38 1 37 -19 0 c-11 0 -18 -6
-17 -14z"/>
<path d="M4622 624 c-29 -19 -50 -39 -47 -44 3 -5 0 -12 -6 -16 -8 -4 -9 -3
-5 4 12 19 3 15 -110 -54 -122 -75 -311 -170 -426 -215 -79 -31 -97 -44 -82
-59 9 -8 150 45 279 104 83 38 293 162 393 231 l83 57 -12 14 c-6 8 -12 14
-13 13 0 0 -25 -16 -54 -35z"/>
<path d="M3565 638 c-58 -17 -291 -66 -350 -73 l-59 -7 19 -14 c10 -8 33 -14
49 -14 79 0 386 73 386 92 0 5 5 6 10 3 6 -3 10 0 10 7 0 16 -24 19 -65 6z"/>
<path d="M2246 569 c-101 -17 -209 -62 -263 -112 l-23 -20 0 -97 0 -97 87 35
c196 79 426 79 616 1 49 -20 73 -26 78 -18 3 6 7 47 8 91 l2 79 -29 27 c-96
90 -308 140 -476 111z"/>
<path d="M1512 338 l3 -103 198 -3 197 -2 0 105 0 105 -200 0 -201 0 3 -102z"/>
<path d="M2802 432 c-9 -6 -12 -34 -10 -103 l3 -94 198 -3 198 -2 -3 102 -3
103 -185 2 c-102 2 -191 -1 -198 -5z"/>
<path d="M2083 196 c0 -16 93 -45 242 -75 371 -75 814 -79 1173 -10 127 25
159 36 144 51 -8 8 -32 6 -89 -5 -43 -9 -155 -26 -248 -38 l-170 -21 -250 5
-250 5 -155 25 c-85 14 -204 37 -263 51 -126 30 -134 31 -134 12z"/>
</g>

</svg>
